<?xml version="1.0" encoding="UTF-8"?>
<!DOCTYPE svg PUBLIC "-//W3C//DTD SVG 1.1//EN" "http://www.w3.org/Graphics/SVG/1.1/DTD/svg11.dtd">
<!-- Creator: CorelDRAW X7 -->
<svg xmlns="http://www.w3.org/2000/svg" xml:space="preserve" width="10mm" height="10mm" version="1.1" style="shape-rendering:geometricPrecision; text-rendering:geometricPrecision; image-rendering:optimizeQuality; fill-rule:evenodd; clip-rule:evenodd"
viewBox="0 0 1000 1000"
 xmlns:xlink="http://www.w3.org/1999/xlink">
 <defs>
  <style type="text/css">
   <![CDATA[
    .fil0 {fill:#F6E7E3}
    .fil1 {fill:#0B0B0B}
   ]]>
  </style>
 </defs>
 <g id="Layer_x0020_1">
  <metadata id="CorelCorpID_0Corel-Layer"/>
  <circle class="fil0" cx="500" cy="500" r="496"/>
  <path class="fil1" d="M500 500c-26,-39 -79,-103 -90,-179 -8,-53 -9,-131 90,-131 95,0 82,83 77,133 -8,77 -51,137 -77,177z"/>
  <path class="fil1" d="M500 500c-40,26 -103,79 -179,90 -53,8 -131,9 -131,-90 0,-95 83,-82 133,-77 77,8 137,51 177,77z"/>
  <path class="fil1" d="M500 500c26,40 79,103 90,180 7,52 9,131 -90,131 -96,0 -83,-84 -78,-134 8,-77 51,-137 78,-177z"/>
  <path class="fil1" d="M500 500c39,-26 103,-79 179,-90 53,-7 131,-8 131,90 0,96 -83,83 -133,78 -77,-8 -137,-51 -177,-78z"/>
 </g>
</svg>
