<?xml version="1.0" encoding="UTF-8"?>
<!DOCTYPE svg PUBLIC "-//W3C//DTD SVG 1.1//EN" "http://www.w3.org/Graphics/SVG/1.1/DTD/svg11.dtd">
<!-- Creator: CorelDRAW X7 -->
<svg xmlns="http://www.w3.org/2000/svg" xml:space="preserve" width="100mm" height="60mm" version="1.1" style="shape-rendering:geometricPrecision; text-rendering:geometricPrecision; image-rendering:optimizeQuality; fill-rule:evenodd; clip-rule:evenodd"
viewBox="0 0 10000 6000"
 xmlns:xlink="http://www.w3.org/1999/xlink">
 <defs>
  <style type="text/css">
   <![CDATA[
    .fil0 {fill:#F6E7E3}
   ]]>
  </style>
 </defs>
 <g id="Layer_x0020_1">
  <metadata id="CorelCorpID_0Corel-Layer"/>
  <path class="fil0" d="M2331 683l0 44 0 86c0,64 -51,135 -132,135 -37,0 -67,-17 -91,-44 -24,-27 -34,-57 -34,-91l0 -86 0 -44 0 -43c0,-33 10,-64 34,-91 24,-27 54,-44 91,-44 81,0 132,71 132,135l0 43zm-644 0l0 44 0 86c0,209 168,502 512,502 354,0 516,-300 516,-502l0 -86 0 -44 0 -43c0,-202 -162,-502 -516,-502 -344,0 -512,293 -512,502l0 43z"/>
  <g id="_1695412296016">
   <path class="fil0" d="M1296 1173l-502 0c-60,0 -127,-48 -127,-124 0,-2 0,-202 0,-205 2,-31 18,-58 41,-78 26,-23 54,-32 86,-32l502 0 0 -365 -502 0c-195,0 -468,156 -473,474 0,3 0,203 0,206 0,333 283,485 473,485l502 0 0 -361z"/>
   <polygon class="fil0" points="992,864 1296,864 1296,1534 992,1534 "/>
  </g>
  <g id="_1695412295152">
   <path class="fil0" d="M879 2551l0 533c0,64 -50,135 -131,135 -37,0 -68,-17 -91,-44 -24,-27 -34,-57 -34,-91l0 -533 -388 0 0 533c0,210 169,503 513,503 354,0 516,-300 516,-503l0 -533 -385 0z"/>
   <path class="fil0" d="M1523 2551l0 533c0,64 -50,135 -131,135 -37,0 -67,-17 -91,-44 -24,-27 -34,-57 -34,-91l0 -533 -388 0 0 533c0,210 169,503 513,503 354,0 516,-300 516,-503l0 -533 -385 0z"/>
  </g>
  <polygon class="fil0" points="2322,2194 2645,2194 2645,3263 2322,3263 "/>
  <g id="_1695412294032">
   <polygon class="fil0" points="3259,2083 3583,2083 3583,3151 3259,3151 "/>
   <polygon class="fil0" points="3025,2406 3025,2083 3817,2083 3817,2406 "/>
  </g>
  <g id="_1695412292752">
   <polygon class="fil0" points="4288,2292 4611,2292 4611,3361 4288,3361 "/>
   <polygon class="fil0" points="4798,2292 5122,2292 5122,3361 4798,3361 "/>
   <polygon class="fil0" points="4293,3074 4293,2750 5085,2750 5085,3074 "/>
  </g>
  <polygon class="fil0" points="6444,1460 6791,1460 6791,2606 6444,2606 "/>
  <polygon class="fil0" points="6193,1806 6193,1460 7042,1460 7042,1806 "/>
  <polygon class="fil0" points="7496,1810 7842,1810 7842,2956 7496,2956 "/>
  <polygon class="fil0" points="8043,1810 8389,1810 8389,2956 8043,2956 "/>
  <polygon class="fil0" points="7501,2648 7501,2301 8350,2301 8350,2648 "/>
  <polygon class="fil0" points="8909,1891 8909,1545 9758,1545 9758,1891 "/>
  <polygon class="fil0" points="8909,2337 8909,1991 9758,1991 9758,2337 "/>
  <polygon class="fil0" points="8909,2783 8909,2437 9758,2437 9758,2783 "/>
  <polygon class="fil0" points="4088,4376 4088,4030 4937,4030 4937,4376 "/>
  <polygon class="fil0" points="4088,4823 4088,4476 4937,4476 4937,4823 "/>
  <polygon class="fil0" points="4088,5269 4088,4922 4451,4922 4451,5269 "/>
  <polygon class="fil0" points="5350,4348 5696,4348 5696,5494 5350,5494 "/>
  <polygon class="fil0" points="5696,5494 5696,5147 6059,5147 6059,5494 "/>
  <path class="fil0" d="M7098 4607l0 46 0 93c0,68 -55,144 -141,144 -40,0 -73,-18 -98,-47 -25,-29 -36,-61 -36,-97l0 -93 0 -46 0 -46c0,-36 11,-69 36,-98 25,-29 58,-47 98,-47 86,0 141,76 141,145l0 46zm-691 0l0 46 0 93c0,224 181,539 550,539 379,0 553,-322 553,-539l0 -93 0 -46 0 -46c0,-217 -174,-539 -553,-539 -369,0 -550,314 -550,539l0 46z"/>
  <g id="_1695412288624">
   <path class="fil0" d="M8681 4782l0 572c0,69 -55,145 -141,145 -40,0 -73,-18 -98,-47 -25,-29 -36,-62 -36,-98l0 -572 -416 0 0 572c0,224 181,539 550,539 379,0 553,-322 553,-539l0 -572 -412 0z"/>
   <path class="fil0" d="M9371 4782l0 572c0,69 -54,145 -141,145 -39,0 -72,-18 -97,-47 -26,-29 -36,-62 -36,-98l0 -572 -416 0 0 572c0,224 180,539 549,539 380,0 554,-322 554,-539l0 -572 -413 0z"/>
  </g>
 </g>
</svg>
