<?xml version="1.0" encoding="UTF-8"?>
<!DOCTYPE svg PUBLIC "-//W3C//DTD SVG 1.1//EN" "http://www.w3.org/Graphics/SVG/1.1/DTD/svg11.dtd">
<!-- Creator: CorelDRAW X7 -->
<svg xmlns="http://www.w3.org/2000/svg" xml:space="preserve" width="20mm" height="10mm" version="1.1" style="shape-rendering:geometricPrecision; text-rendering:geometricPrecision; image-rendering:optimizeQuality; fill-rule:evenodd; clip-rule:evenodd"
viewBox="0 0 2000 1000"
 xmlns:xlink="http://www.w3.org/1999/xlink">
 <defs>
  <style type="text/css">
   <![CDATA[
    .fil1 {fill:none}
    .fil0 {fill:#2B2A29}
    .fil2 {fill:#2B2A29;fill-rule:nonzero}
   ]]>
  </style>
 </defs>
 <g id="Layer_x0020_1">
  <metadata id="CorelCorpID_0Corel-Layer"/>
  <path class="fil0" d="M1545 211l-38 139c-4,16 -13,35 -34,35 -10,0 -18,-4 -24,-11 -10,-12 -35,-140 -40,-163l-102 0 31 139c12,53 45,132 135,132 93,0 121,-81 135,-132l38 -139 -101 0z"/>
  <path class="fil0" d="M1855 212l0 37c0,17 -13,36 -35,36 -9,0 -17,-5 -24,-12 -6,-7 -8,-15 -8,-24l0 -37 -102 0 0 37c0,55 44,132 134,132 93,0 136,-78 136,-132l0 -37 -101 0z"/>
  <polygon class="fil0" points="1855,212 1956,212 1956,482 1855,482 "/>
  <path class="fil0" d="M182 773c84,0 121,-70 121,-116l0 -38c0,-50 -40,-117 -121,-117l-120 0 0 271 120 0zm0 -86l-29 0 0 -99 29 0c19,0 31,16 31,31l0 38c0,15 -12,30 -31,30z"/>
  <path class="fil0" d="M1654 950l0 -42c0,-24 -9,-53 -27,-74 18,-23 27,-53 27,-76l0 0c0,-49 -39,-116 -120,-116 -83,0 -121,69 -121,116l0 192 91 0 0 -74 29 0c18,0 31,17 31,32l0 42 90 0zm-119 -159l-31 0 0 -33c0,-15 11,-31 30,-31 18,0 30,16 30,31l0 0c0,15 -13,33 -29,33z"/>
  <path class="fil0" d="M205 92l0 140c0,17 -13,35 -35,35 -9,0 -17,-4 -24,-11 -6,-7 -8,-15 -8,-24l0 -140 -102 0 0 140c0,55 44,132 134,132 93,0 136,-79 136,-132l0 -140 -101 0z"/>
  <path class="fil0" d="M374 92l0 140c0,17 -13,35 -35,35 -9,0 -17,-4 -24,-11 -6,-7 -8,-15 -8,-24l0 -140 -102 0 0 140c0,55 44,132 134,132 93,0 136,-79 136,-132l0 -140 -101 0z"/>
  <path class="fil0" d="M1866 678l0 37c0,17 -13,35 -35,35 -9,0 -17,-4 -23,-11 -7,-7 -9,-15 -9,-24l0 -37 -102 0 0 37c0,55 44,132 134,132 93,0 136,-79 136,-132l0 -37 -101 0z"/>
  <polygon class="fil0" points="1866,678 1967,678 1967,948 1866,948 "/>
  <path class="fil1" d="M566 350c100,-294 231,-268 321,-108 84,147 157,218 405,207"/>
  <path class="fil2" d="M514 332c31,-94 67,-159 105,-200 34,-38 71,-57 110,-62 39,-5 77,7 112,32 35,25 67,64 95,113 37,65 71,114 120,142 50,29 121,42 234,37l4 110c-135,6 -225,-11 -294,-51 -70,-41 -114,-102 -161,-184 -20,-35 -41,-61 -62,-77 -13,-9 -25,-13 -35,-12 -12,2 -26,10 -41,27 -28,30 -56,82 -82,161l-105 -36z"/>
  <path class="fil1" d="M423 773c100,-294 231,-267 322,-108 83,148 156,219 404,207"/>
  <path class="fil2" d="M371 756c32,-94 67,-159 105,-200 34,-38 71,-58 110,-62 39,-5 77,6 112,32 35,24 67,63 95,112 37,66 71,114 120,143 50,29 121,41 234,36l5 111c-136,6 -226,-12 -294,-52 -71,-41 -115,-102 -162,-183 -19,-35 -41,-62 -62,-77 -13,-9 -25,-14 -35,-12 -12,1 -26,9 -41,26 -28,31 -56,83 -82,161l-105 -35z"/>
  <polygon class="fil0" points="1245,669 1330,669 1330,950 1245,950 "/>
 </g>
</svg>
